<svg xmlns="http://www.w3.org/2000/svg" viewBox="0 0 960 540" role="img" aria-labelledby="title desc">
  <title id="title">ECO QUEST 생태지도</title>
  <desc id="desc">학교와 마을 지도 위에 식물, 곤충, 조류 관찰 핀이 표시된 화면</desc>
  <rect width="960" height="540" fill="#e9efd9"/>
  <path d="M-50 400C140 340 260 460 470 405S790 355 1030 430V600H-50Z" fill="#93ccd0"/>
  <path d="M-30 225C180 205 255 270 440 238S760 126 1000 180" fill="none" stroke="#fff9e6" stroke-width="60"/>
  <path d="M350-20l37 590" stroke="#fff9e6" stroke-width="42"/>
  <rect x="474" y="265" width="255" height="128" rx="7" fill="#d6b78c" stroke="#173f35" stroke-width="6"/>
  <rect x="495" y="286" width="213" height="63" fill="#fff5d6"/>
  <g fill="#5e9851" stroke="#173f35" stroke-width="4">
    <circle cx="130" cy="344" r="37"/><circle cx="187" cy="370" r="42"/><circle cx="825" cy="310" r="40"/><circle cx="872" cy="351" r="45"/>
  </g>
  <g font-family="Arial,sans-serif" font-weight="800" fill="#173f35"><text x="545" y="327" font-size="24">우리 학교</text><text x="49" y="64" font-size="18">우리 마을 생태지도</text></g>
  <g font-family="monospace" text-anchor="middle" fill="#fff" font-weight="900">
    <g transform="translate(224 230)"><path d="M0-47c31 0 56 24 56 54 0 40-56 76-56 76S-56 47-56 7c0-30 25-54 56-54Z" fill="#5e9851" stroke="#fff" stroke-width="6"/><text y="15" font-size="27">31</text></g>
    <g transform="translate(595 223)"><path d="M0-55c37 0 66 28 66 64 0 47-66 90-66 90S-66 56-66 9c0-36 29-64 66-64Z" fill="#8068ad" stroke="#fff" stroke-width="7"/><text y="20" font-size="32">47</text></g>
    <g transform="translate(814 216)"><path d="M0-45c29 0 52 22 52 51 0 37-52 70-52 70S-52 43-52 6c0-29 23-51 52-51Z" fill="#4f9fa9" stroke="#fff" stroke-width="6"/><text y="15" font-size="25">22</text></g>
  </g>
  <rect x="42" y="451" width="876" height="59" rx="16" fill="#173f35"/>
  <g font-family="Arial,sans-serif" fill="#fff"><text x="72" y="486" font-size="23" font-weight="900">ECO QUEST</text><text x="260" y="484" font-size="15" fill="#cfe5b0">걸어서 발견하고, 함께 완성하는 생태도감</text></g>
  <g transform="translate(850 467)" fill="#f2c94c"><rect width="12" height="12"/><rect x="18" width="12" height="12"/><rect y="18" width="12" height="12"/><rect x="18" y="18" width="12" height="12"/></g>
</svg>
